<mxfile host="65bd71144e">
    <diagram id="O1QOw5PVS5vLFR1pu09W" name="페이지-1">
        <mxGraphModel dx="810" dy="528" grid="1" gridSize="10" guides="1" tooltips="1" connect="1" arrows="1" fold="1" page="1" pageScale="1" pageWidth="827" pageHeight="1169" math="0" shadow="0">
            <root>
                <mxCell id="0"/>
                <mxCell id="1" parent="0"/>
                <mxCell id="155" value="" style="rounded=0;whiteSpace=wrap;html=1;fontSize=20;fillColor=#6d8764;fontColor=#ffffff;strokeColor=#3A5431;" vertex="1" parent="1">
                    <mxGeometry x="960" y="50" width="650" height="560" as="geometry"/>
                </mxCell>
                <mxCell id="32" value="" style="group" vertex="1" connectable="0" parent="1">
                    <mxGeometry x="29" y="535" width="770" height="50" as="geometry"/>
                </mxCell>
                <mxCell id="25" value="Step" style="rounded=0;whiteSpace=wrap;html=1;fontSize=30;" vertex="1" parent="32">
                    <mxGeometry width="77" height="50" as="geometry"/>
                </mxCell>
                <mxCell id="26" value="Nodes" style="rounded=0;whiteSpace=wrap;html=1;fontSize=30;" vertex="1" parent="32">
                    <mxGeometry x="77" width="115.5" height="50" as="geometry"/>
                </mxCell>
                <mxCell id="27" value="A" style="rounded=0;whiteSpace=wrap;html=1;fontSize=30;" vertex="1" parent="32">
                    <mxGeometry x="192.5" width="115.5" height="50" as="geometry"/>
                </mxCell>
                <mxCell id="28" value="C" style="rounded=0;whiteSpace=wrap;html=1;fontSize=30;" vertex="1" parent="32">
                    <mxGeometry x="308" width="115.5" height="50" as="geometry"/>
                </mxCell>
                <mxCell id="29" value="D" style="rounded=0;whiteSpace=wrap;html=1;fontSize=30;" vertex="1" parent="32">
                    <mxGeometry x="423.5" width="115.5" height="50" as="geometry"/>
                </mxCell>
                <mxCell id="30" value="E" style="rounded=0;whiteSpace=wrap;html=1;fontSize=30;" vertex="1" parent="32">
                    <mxGeometry x="539" width="115.5" height="50" as="geometry"/>
                </mxCell>
                <mxCell id="31" value="F" style="rounded=0;whiteSpace=wrap;html=1;fontSize=30;" vertex="1" parent="32">
                    <mxGeometry x="654.5" width="115.5" height="50" as="geometry"/>
                </mxCell>
                <mxCell id="33" value="" style="group" vertex="1" connectable="0" parent="1">
                    <mxGeometry x="29" y="585" width="770" height="50" as="geometry"/>
                </mxCell>
                <mxCell id="34" value="1" style="rounded=0;whiteSpace=wrap;html=1;fontSize=30;" vertex="1" parent="33">
                    <mxGeometry width="77" height="50" as="geometry"/>
                </mxCell>
                <mxCell id="35" value="{B}" style="rounded=0;whiteSpace=wrap;html=1;fontSize=30;" vertex="1" parent="33">
                    <mxGeometry x="77" width="115.5" height="50" as="geometry"/>
                </mxCell>
                <mxCell id="36" value="B,40" style="rounded=0;whiteSpace=wrap;html=1;fontSize=30;" vertex="1" parent="33">
                    <mxGeometry x="192.5" width="115.5" height="50" as="geometry"/>
                </mxCell>
                <mxCell id="37" value="B,5" style="rounded=0;whiteSpace=wrap;html=1;fontSize=30;" vertex="1" parent="33">
                    <mxGeometry x="308" width="115.5" height="50" as="geometry"/>
                </mxCell>
                <mxCell id="38" value="B,30" style="rounded=0;whiteSpace=wrap;html=1;fontSize=30;" vertex="1" parent="33">
                    <mxGeometry x="423.5" width="115.5" height="50" as="geometry"/>
                </mxCell>
                <mxCell id="39" value="∞" style="rounded=0;whiteSpace=wrap;html=1;fontSize=30;" vertex="1" parent="33">
                    <mxGeometry x="539" width="115.5" height="50" as="geometry"/>
                </mxCell>
                <mxCell id="40" value="∞" style="rounded=0;whiteSpace=wrap;html=1;fontSize=30;" vertex="1" parent="33">
                    <mxGeometry x="654.5" width="115.5" height="50" as="geometry"/>
                </mxCell>
                <mxCell id="41" value="" style="group" vertex="1" connectable="0" parent="1">
                    <mxGeometry x="29" y="635" width="770" height="50" as="geometry"/>
                </mxCell>
                <mxCell id="42" value="2" style="rounded=0;whiteSpace=wrap;html=1;fontSize=30;" vertex="1" parent="41">
                    <mxGeometry width="77" height="50" as="geometry"/>
                </mxCell>
                <mxCell id="43" value="{B,C}" style="rounded=0;whiteSpace=wrap;html=1;fontSize=30;" vertex="1" parent="41">
                    <mxGeometry x="77" width="115.5" height="50" as="geometry"/>
                </mxCell>
                <mxCell id="44" value="B,40" style="rounded=0;whiteSpace=wrap;html=1;fontSize=30;" vertex="1" parent="41">
                    <mxGeometry x="192.5" width="115.5" height="50" as="geometry"/>
                </mxCell>
                <mxCell id="45" value="-" style="rounded=0;whiteSpace=wrap;html=1;fontSize=30;" vertex="1" parent="41">
                    <mxGeometry x="308" width="115.5" height="50" as="geometry"/>
                </mxCell>
                <mxCell id="46" value="B,30" style="rounded=0;whiteSpace=wrap;html=1;fontSize=30;" vertex="1" parent="41">
                    <mxGeometry x="423.5" width="115.5" height="50" as="geometry"/>
                </mxCell>
                <mxCell id="47" value="C,10" style="rounded=0;whiteSpace=wrap;html=1;fontSize=30;" vertex="1" parent="41">
                    <mxGeometry x="539" width="115.5" height="50" as="geometry"/>
                </mxCell>
                <mxCell id="48" value="∞" style="rounded=0;whiteSpace=wrap;html=1;fontSize=30;" vertex="1" parent="41">
                    <mxGeometry x="654.5" width="115.5" height="50" as="geometry"/>
                </mxCell>
                <mxCell id="50" value="" style="group" vertex="1" connectable="0" parent="1">
                    <mxGeometry x="29" y="686" width="770" height="50" as="geometry"/>
                </mxCell>
                <mxCell id="51" value="3" style="rounded=0;whiteSpace=wrap;html=1;fontSize=30;" vertex="1" parent="50">
                    <mxGeometry width="77" height="50" as="geometry"/>
                </mxCell>
                <mxCell id="52" value="{B,C,E}" style="rounded=0;whiteSpace=wrap;html=1;fontSize=30;" vertex="1" parent="50">
                    <mxGeometry x="77" width="115.5" height="50" as="geometry"/>
                </mxCell>
                <mxCell id="53" value="B,40" style="rounded=0;whiteSpace=wrap;html=1;fontSize=30;" vertex="1" parent="50">
                    <mxGeometry x="192.5" width="115.5" height="50" as="geometry"/>
                </mxCell>
                <mxCell id="54" value="-" style="rounded=0;whiteSpace=wrap;html=1;fontSize=30;" vertex="1" parent="50">
                    <mxGeometry x="308" width="115.5" height="50" as="geometry"/>
                </mxCell>
                <mxCell id="55" value="E,5" style="rounded=0;whiteSpace=wrap;html=1;fontSize=30;" vertex="1" parent="50">
                    <mxGeometry x="423.5" width="115.5" height="50" as="geometry"/>
                </mxCell>
                <mxCell id="56" value="-" style="rounded=0;whiteSpace=wrap;html=1;fontSize=30;" vertex="1" parent="50">
                    <mxGeometry x="539" width="115.5" height="50" as="geometry"/>
                </mxCell>
                <mxCell id="57" value="E,5" style="rounded=0;whiteSpace=wrap;html=1;fontSize=30;" vertex="1" parent="50">
                    <mxGeometry x="654.5" width="115.5" height="50" as="geometry"/>
                </mxCell>
                <mxCell id="58" value="" style="group" vertex="1" connectable="0" parent="1">
                    <mxGeometry x="29" y="737" width="770" height="50" as="geometry"/>
                </mxCell>
                <mxCell id="59" value="4" style="rounded=0;whiteSpace=wrap;html=1;fontSize=30;" vertex="1" parent="58">
                    <mxGeometry width="77" height="50" as="geometry"/>
                </mxCell>
                <mxCell id="60" value="&lt;font style=&quot;font-size: 20px;&quot;&gt;{B,C,E,D}&lt;/font&gt;" style="rounded=0;whiteSpace=wrap;html=1;fontSize=30;" vertex="1" parent="58">
                    <mxGeometry x="77" width="115.5" height="50" as="geometry"/>
                </mxCell>
                <mxCell id="61" value="D,5" style="rounded=0;whiteSpace=wrap;html=1;fontSize=30;" vertex="1" parent="58">
                    <mxGeometry x="192.5" width="115.5" height="50" as="geometry"/>
                </mxCell>
                <mxCell id="62" value="-" style="rounded=0;whiteSpace=wrap;html=1;fontSize=30;" vertex="1" parent="58">
                    <mxGeometry x="308" width="115.5" height="50" as="geometry"/>
                </mxCell>
                <mxCell id="63" value="-" style="rounded=0;whiteSpace=wrap;html=1;fontSize=30;" vertex="1" parent="58">
                    <mxGeometry x="423.5" width="115.5" height="50" as="geometry"/>
                </mxCell>
                <mxCell id="64" value="-" style="rounded=0;whiteSpace=wrap;html=1;fontSize=30;" vertex="1" parent="58">
                    <mxGeometry x="539" width="115.5" height="50" as="geometry"/>
                </mxCell>
                <mxCell id="65" value="E,5" style="rounded=0;whiteSpace=wrap;html=1;fontSize=30;" vertex="1" parent="58">
                    <mxGeometry x="654.5" width="115.5" height="50" as="geometry"/>
                </mxCell>
                <mxCell id="66" value="" style="group" vertex="1" connectable="0" parent="1">
                    <mxGeometry x="29" y="788" width="770" height="50" as="geometry"/>
                </mxCell>
                <mxCell id="67" value="5" style="rounded=0;whiteSpace=wrap;html=1;fontSize=30;" vertex="1" parent="66">
                    <mxGeometry width="77" height="50" as="geometry"/>
                </mxCell>
                <mxCell id="68" value="&lt;font style=&quot;font-size: 20px;&quot;&gt;{B,C,E,D,A}&lt;/font&gt;" style="rounded=0;whiteSpace=wrap;html=1;fontSize=30;" vertex="1" parent="66">
                    <mxGeometry x="77" width="115.5" height="50" as="geometry"/>
                </mxCell>
                <mxCell id="69" value="-" style="rounded=0;whiteSpace=wrap;html=1;fontSize=30;" vertex="1" parent="66">
                    <mxGeometry x="192.5" width="115.5" height="50" as="geometry"/>
                </mxCell>
                <mxCell id="70" value="-" style="rounded=0;whiteSpace=wrap;html=1;fontSize=30;" vertex="1" parent="66">
                    <mxGeometry x="308" width="115.5" height="50" as="geometry"/>
                </mxCell>
                <mxCell id="71" value="-" style="rounded=0;whiteSpace=wrap;html=1;fontSize=30;" vertex="1" parent="66">
                    <mxGeometry x="423.5" width="115.5" height="50" as="geometry"/>
                </mxCell>
                <mxCell id="72" value="-" style="rounded=0;whiteSpace=wrap;html=1;fontSize=30;" vertex="1" parent="66">
                    <mxGeometry x="539" width="115.5" height="50" as="geometry"/>
                </mxCell>
                <mxCell id="73" value="E,5" style="rounded=0;whiteSpace=wrap;html=1;fontSize=30;" vertex="1" parent="66">
                    <mxGeometry x="654.5" width="115.5" height="50" as="geometry"/>
                </mxCell>
                <mxCell id="74" value="" style="group" vertex="1" connectable="0" parent="1">
                    <mxGeometry x="29" y="840" width="770" height="50" as="geometry"/>
                </mxCell>
                <mxCell id="75" value="6" style="rounded=0;whiteSpace=wrap;html=1;fontSize=30;" vertex="1" parent="74">
                    <mxGeometry width="77" height="50" as="geometry"/>
                </mxCell>
                <mxCell id="76" value="&lt;font style=&quot;font-size: 20px;&quot;&gt;{B,C,E,D,A,F}&lt;/font&gt;" style="rounded=0;whiteSpace=wrap;html=1;fontSize=30;" vertex="1" parent="74">
                    <mxGeometry x="77" width="115.5" height="50" as="geometry"/>
                </mxCell>
                <mxCell id="77" value="-" style="rounded=0;whiteSpace=wrap;html=1;fontSize=30;" vertex="1" parent="74">
                    <mxGeometry x="192.5" width="115.5" height="50" as="geometry"/>
                </mxCell>
                <mxCell id="78" value="-" style="rounded=0;whiteSpace=wrap;html=1;fontSize=30;" vertex="1" parent="74">
                    <mxGeometry x="308" width="115.5" height="50" as="geometry"/>
                </mxCell>
                <mxCell id="79" value="-" style="rounded=0;whiteSpace=wrap;html=1;fontSize=30;" vertex="1" parent="74">
                    <mxGeometry x="423.5" width="115.5" height="50" as="geometry"/>
                </mxCell>
                <mxCell id="80" value="-" style="rounded=0;whiteSpace=wrap;html=1;fontSize=30;" vertex="1" parent="74">
                    <mxGeometry x="539" width="115.5" height="50" as="geometry"/>
                </mxCell>
                <mxCell id="81" value="-" style="rounded=0;whiteSpace=wrap;html=1;fontSize=30;" vertex="1" parent="74">
                    <mxGeometry x="654.5" width="115.5" height="50" as="geometry"/>
                </mxCell>
                <mxCell id="82" value="" style="group" vertex="1" connectable="0" parent="1">
                    <mxGeometry x="100" y="30" width="670" height="480" as="geometry"/>
                </mxCell>
                <mxCell id="106" value="" style="rounded=0;whiteSpace=wrap;html=1;fontSize=20;fillColor=#6d8764;fontColor=#ffffff;strokeColor=#3A5431;" vertex="1" parent="82">
                    <mxGeometry x="-20" y="-15" width="690" height="495" as="geometry"/>
                </mxCell>
                <mxCell id="2" value="&lt;font style=&quot;font-size: 30px;&quot;&gt;A&lt;/font&gt;" style="ellipse;whiteSpace=wrap;html=1;aspect=fixed;" vertex="1" parent="82">
                    <mxGeometry x="30" y="30" width="80" height="80" as="geometry"/>
                </mxCell>
                <mxCell id="9" style="edgeStyle=none;shape=link;html=1;exitX=0.5;exitY=0;exitDx=0;exitDy=0;entryX=0.5;entryY=1;entryDx=0;entryDy=0;" edge="1" parent="82" source="3" target="2">
                    <mxGeometry relative="1" as="geometry"/>
                </mxCell>
                <mxCell id="3" value="&lt;span style=&quot;font-size: 30px;&quot;&gt;B&lt;/span&gt;" style="ellipse;whiteSpace=wrap;html=1;aspect=fixed;fillColor=#e51400;fontColor=#ffffff;strokeColor=#B20000;" vertex="1" parent="82">
                    <mxGeometry x="30" y="230" width="80" height="80" as="geometry"/>
                </mxCell>
                <mxCell id="4" value="&lt;span style=&quot;font-size: 30px;&quot;&gt;C&lt;/span&gt;" style="ellipse;whiteSpace=wrap;html=1;aspect=fixed;" vertex="1" parent="82">
                    <mxGeometry x="250" y="390" width="80" height="80" as="geometry"/>
                </mxCell>
                <mxCell id="10" style="edgeStyle=none;shape=link;html=1;exitX=1;exitY=1;exitDx=0;exitDy=0;entryX=0;entryY=0.5;entryDx=0;entryDy=0;" edge="1" parent="82" source="3" target="4">
                    <mxGeometry relative="1" as="geometry"/>
                </mxCell>
                <mxCell id="13" style="edgeStyle=none;shape=link;html=1;" edge="1" parent="82" target="6">
                    <mxGeometry relative="1" as="geometry">
                        <mxPoint x="340" y="140" as="sourcePoint"/>
                    </mxGeometry>
                </mxCell>
                <mxCell id="5" value="&lt;span style=&quot;font-size: 30px;&quot;&gt;D&lt;/span&gt;" style="ellipse;whiteSpace=wrap;html=1;aspect=fixed;" vertex="1" parent="82">
                    <mxGeometry x="260" y="110" width="80" height="80" as="geometry"/>
                </mxCell>
                <mxCell id="8" style="edgeStyle=none;html=1;shape=link;" edge="1" parent="82" source="2" target="5">
                    <mxGeometry relative="1" as="geometry"/>
                </mxCell>
                <mxCell id="18" style="edgeStyle=none;shape=link;html=1;fontSize=30;" edge="1" parent="82" source="3" target="5">
                    <mxGeometry relative="1" as="geometry"/>
                </mxCell>
                <mxCell id="6" value="&lt;span style=&quot;font-size: 30px;&quot;&gt;F&lt;/span&gt;" style="ellipse;whiteSpace=wrap;html=1;aspect=fixed;" vertex="1" parent="82">
                    <mxGeometry x="520" width="80" height="80" as="geometry"/>
                </mxCell>
                <mxCell id="12" style="edgeStyle=none;shape=link;html=1;exitX=0;exitY=0;exitDx=0;exitDy=0;" edge="1" parent="82" source="7" target="5">
                    <mxGeometry relative="1" as="geometry"/>
                </mxCell>
                <mxCell id="7" value="&lt;span style=&quot;font-size: 30px;&quot;&gt;E&lt;/span&gt;" style="ellipse;whiteSpace=wrap;html=1;aspect=fixed;" vertex="1" parent="82">
                    <mxGeometry x="510" y="270" width="80" height="80" as="geometry"/>
                </mxCell>
                <mxCell id="11" style="edgeStyle=none;shape=link;html=1;exitX=1;exitY=0.5;exitDx=0;exitDy=0;entryX=0;entryY=1;entryDx=0;entryDy=0;" edge="1" parent="82" source="4" target="7">
                    <mxGeometry relative="1" as="geometry"/>
                </mxCell>
                <mxCell id="14" style="edgeStyle=none;shape=link;html=1;exitX=0.5;exitY=1;exitDx=0;exitDy=0;" edge="1" parent="82" source="6" target="7">
                    <mxGeometry relative="1" as="geometry"/>
                </mxCell>
                <mxCell id="16" value="5" style="text;html=1;align=center;verticalAlign=middle;resizable=0;points=[];autosize=1;strokeColor=none;fillColor=none;fontSize=30;" vertex="1" parent="82">
                    <mxGeometry x="180" y="45" width="40" height="50" as="geometry"/>
                </mxCell>
                <mxCell id="17" value="40" style="text;html=1;align=center;verticalAlign=middle;resizable=0;points=[];autosize=1;strokeColor=none;fillColor=none;fontSize=30;" vertex="1" parent="82">
                    <mxGeometry y="140" width="60" height="50" as="geometry"/>
                </mxCell>
                <mxCell id="19" value="30" style="text;html=1;align=center;verticalAlign=middle;resizable=0;points=[];autosize=1;strokeColor=none;fillColor=none;fontSize=30;" vertex="1" parent="82">
                    <mxGeometry x="140" y="160" width="60" height="50" as="geometry"/>
                </mxCell>
                <mxCell id="20" value="5" style="text;html=1;align=center;verticalAlign=middle;resizable=0;points=[];autosize=1;strokeColor=none;fillColor=none;fontSize=30;" vertex="1" parent="82">
                    <mxGeometry x="160" y="290" width="40" height="50" as="geometry"/>
                </mxCell>
                <mxCell id="21" value="5" style="text;html=1;align=center;verticalAlign=middle;resizable=0;points=[];autosize=1;strokeColor=none;fillColor=none;fontSize=30;" vertex="1" parent="82">
                    <mxGeometry x="370" y="210" width="40" height="50" as="geometry"/>
                </mxCell>
                <mxCell id="22" value="10" style="text;html=1;align=center;verticalAlign=middle;resizable=0;points=[];autosize=1;strokeColor=none;fillColor=none;fontSize=30;" vertex="1" parent="82">
                    <mxGeometry x="380" y="330" width="60" height="50" as="geometry"/>
                </mxCell>
                <mxCell id="23" value="5" style="text;html=1;align=center;verticalAlign=middle;resizable=0;points=[];autosize=1;strokeColor=none;fillColor=none;fontSize=30;" vertex="1" parent="82">
                    <mxGeometry x="500" y="150" width="40" height="50" as="geometry"/>
                </mxCell>
                <mxCell id="24" value="20" style="text;html=1;align=center;verticalAlign=middle;resizable=0;points=[];autosize=1;strokeColor=none;fillColor=none;fontSize=30;" vertex="1" parent="82">
                    <mxGeometry x="380" y="10" width="60" height="50" as="geometry"/>
                </mxCell>
                <mxCell id="84" value="&lt;font style=&quot;font-size: 30px;&quot;&gt;A&lt;/font&gt;" style="ellipse;whiteSpace=wrap;html=1;aspect=fixed;" vertex="1" parent="1">
                    <mxGeometry x="1010" y="145" width="80" height="80" as="geometry"/>
                </mxCell>
                <mxCell id="86" value="&lt;span style=&quot;font-size: 30px;&quot;&gt;B&lt;/span&gt;" style="ellipse;whiteSpace=wrap;html=1;aspect=fixed;fillColor=#e51400;fontColor=#ffffff;strokeColor=#B20000;" vertex="1" parent="1">
                    <mxGeometry x="1010" y="345" width="80" height="80" as="geometry"/>
                </mxCell>
                <mxCell id="87" value="&lt;span style=&quot;font-size: 30px;&quot;&gt;C&lt;/span&gt;" style="ellipse;whiteSpace=wrap;html=1;aspect=fixed;" vertex="1" parent="1">
                    <mxGeometry x="1230" y="505" width="80" height="80" as="geometry"/>
                </mxCell>
                <mxCell id="88" style="edgeStyle=none;shape=link;html=1;exitX=1;exitY=1;exitDx=0;exitDy=0;entryX=0;entryY=0.5;entryDx=0;entryDy=0;" edge="1" parent="1" source="86" target="87">
                    <mxGeometry relative="1" as="geometry"/>
                </mxCell>
                <mxCell id="90" value="&lt;span style=&quot;font-size: 30px;&quot;&gt;D&lt;/span&gt;" style="ellipse;whiteSpace=wrap;html=1;aspect=fixed;" vertex="1" parent="1">
                    <mxGeometry x="1240" y="225" width="80" height="80" as="geometry"/>
                </mxCell>
                <mxCell id="91" style="edgeStyle=none;html=1;shape=link;" edge="1" parent="1" source="84" target="90">
                    <mxGeometry relative="1" as="geometry"/>
                </mxCell>
                <mxCell id="93" value="&lt;span style=&quot;font-size: 30px;&quot;&gt;F&lt;/span&gt;" style="ellipse;whiteSpace=wrap;html=1;aspect=fixed;" vertex="1" parent="1">
                    <mxGeometry x="1500" y="115" width="80" height="80" as="geometry"/>
                </mxCell>
                <mxCell id="94" style="edgeStyle=none;shape=link;html=1;exitX=0;exitY=0;exitDx=0;exitDy=0;" edge="1" parent="1" source="95" target="90">
                    <mxGeometry relative="1" as="geometry"/>
                </mxCell>
                <mxCell id="95" value="&lt;span style=&quot;font-size: 30px;&quot;&gt;E&lt;/span&gt;" style="ellipse;whiteSpace=wrap;html=1;aspect=fixed;" vertex="1" parent="1">
                    <mxGeometry x="1490" y="385" width="80" height="80" as="geometry"/>
                </mxCell>
                <mxCell id="96" style="edgeStyle=none;shape=link;html=1;exitX=1;exitY=0.5;exitDx=0;exitDy=0;entryX=0;entryY=1;entryDx=0;entryDy=0;" edge="1" parent="1" source="87" target="95">
                    <mxGeometry relative="1" as="geometry"/>
                </mxCell>
                <mxCell id="97" style="edgeStyle=none;shape=link;html=1;exitX=0.5;exitY=1;exitDx=0;exitDy=0;" edge="1" parent="1" source="93" target="95">
                    <mxGeometry relative="1" as="geometry"/>
                </mxCell>
                <mxCell id="98" value="5" style="text;html=1;align=center;verticalAlign=middle;resizable=0;points=[];autosize=1;strokeColor=none;fillColor=none;fontSize=30;" vertex="1" parent="1">
                    <mxGeometry x="1160" y="160" width="40" height="50" as="geometry"/>
                </mxCell>
                <mxCell id="101" value="5" style="text;html=1;align=center;verticalAlign=middle;resizable=0;points=[];autosize=1;strokeColor=none;fillColor=none;fontSize=30;" vertex="1" parent="1">
                    <mxGeometry x="1140" y="405" width="40" height="50" as="geometry"/>
                </mxCell>
                <mxCell id="102" value="5" style="text;html=1;align=center;verticalAlign=middle;resizable=0;points=[];autosize=1;strokeColor=none;fillColor=none;fontSize=30;" vertex="1" parent="1">
                    <mxGeometry x="1350" y="325" width="40" height="50" as="geometry"/>
                </mxCell>
                <mxCell id="103" value="10" style="text;html=1;align=center;verticalAlign=middle;resizable=0;points=[];autosize=1;strokeColor=none;fillColor=none;fontSize=30;" vertex="1" parent="1">
                    <mxGeometry x="1360" y="445" width="60" height="50" as="geometry"/>
                </mxCell>
                <mxCell id="104" value="5" style="text;html=1;align=center;verticalAlign=middle;resizable=0;points=[];autosize=1;strokeColor=none;fillColor=none;fontSize=30;" vertex="1" parent="1">
                    <mxGeometry x="1480" y="265" width="40" height="50" as="geometry"/>
                </mxCell>
                <mxCell id="156" style="edgeStyle=none;html=1;entryX=0;entryY=0.5;entryDx=0;entryDy=0;fontSize=20;strokeWidth=10;" edge="1" parent="1" source="106" target="155">
                    <mxGeometry relative="1" as="geometry"/>
                </mxCell>
            </root>
        </mxGraphModel>
    </diagram>
</mxfile>